<svg width="295" height="48" viewBox="0 0 295 48" fill="none" xmlns="http://www.w3.org/2000/svg">
<path d="M13.2474 40.3551C8.75013 40.3551 5.41759 39.1533 3.2498 36.7498C1.08201 34.3463 -0.00125269 30.1462 1.08709e-06 24.1494C1.08709e-06 18.0735 1.08013 13.8671 3.2404 11.53C5.40066 9.19299 8.73634 8.02511 13.2474 8.02637C17.6896 8.02637 20.8999 9.08265 22.8784 11.1953C24.8568 13.3079 25.8467 16.532 25.8479 20.8676H21.7932C21.7932 17.1815 21.1036 14.6532 19.7245 13.2828C18.3453 11.9125 16.1706 11.2266 13.2004 11.2254C10.1638 11.2254 7.87813 12.0359 6.3435 13.6571C4.80888 15.2782 4.04282 18.7825 4.04533 24.17C4.04533 29.4359 4.81515 32.9132 6.35479 34.6021C7.89443 36.2909 10.1763 37.1348 13.2004 37.1335C16.1593 37.1335 18.3303 36.4013 19.7132 34.9369C21.0961 33.4724 21.7857 30.9649 21.7819 27.4142H25.8479C25.8479 31.6005 24.8587 34.8046 22.8802 37.0263C20.9018 39.248 17.6908 40.3576 13.2474 40.3551Z" fill="black"/>
<path d="M45.9163 25.0765C45.9163 22.7796 45.5282 21.159 44.7521 20.2149C43.976 19.2708 42.3386 18.7982 39.8398 18.7969C37.247 18.7969 35.3971 19.4182 34.29 20.6607C33.3308 21.7402 32.7904 23.0767 32.6688 24.6703V40.167H28.6987V16.0004H32.6688V18.6954C32.6678 18.7975 32.6546 18.8992 32.6293 18.9981L31.8996 20.3146L32.0538 20.7509C32.4692 19.9076 33.0236 19.1402 33.6938 18.481C35.2936 16.8598 37.8081 16.0493 41.2372 16.0493C44.6224 16.0493 46.9118 16.7821 48.1054 18.2478C49.299 19.7134 49.8933 21.9922 49.8882 25.084L45.9163 25.0765Z" fill="black"/>
<path d="M77.0486 31.3805C76.8192 33.8116 76.2218 35.6691 75.2563 36.9529C74.3562 38.1875 73.1022 39.1195 71.6605 39.6254C70.2425 40.1382 68.0415 40.3946 65.0575 40.3946H65.0368C60.2298 40.3946 56.9819 39.4699 55.293 37.6206C53.6042 35.7713 52.7535 32.618 52.741 28.1608C52.741 23.6635 53.6123 20.5203 55.3551 18.7312C57.0979 16.942 60.305 16.0481 64.9766 16.0493C69.6896 16.0493 72.8867 16.9508 74.568 18.7537C76.2493 20.5566 77.09 23.4792 77.09 27.5214L77.0693 28.6366L56.57 28.6555C56.664 32.2914 57.2583 34.7024 58.3529 35.8885C59.539 37.1975 61.7669 37.8519 65.0368 37.8519C67.0754 37.8519 68.5373 37.6902 69.4225 37.3667C70.3077 37.0433 71.0844 36.402 71.7527 35.4428C72.4197 34.4837 72.8685 33.1327 73.0992 31.39L77.0486 31.3805ZM73.1406 26.4193C73.113 23.4479 72.5118 21.3986 71.337 20.2714C70.1622 19.1443 68.0421 18.5801 64.9766 18.5788C61.8572 18.5788 59.6762 19.18 58.4338 20.3824C57.3267 21.4619 56.7054 23.4742 56.57 26.4193H73.1406Z" fill="black"/>
<path d="M99.6733 8.00562H103.623V40.1651H99.6733V37.6205C99.6697 37.5155 99.6909 37.4111 99.7354 37.3159L100.676 35.7775L100.555 35.7361C100.123 36.5335 99.4138 37.3441 98.4283 38.1678C96.6855 39.626 93.9711 40.355 90.285 40.355H90.1665C86.4052 40.3137 83.7616 39.3852 82.2357 37.5697C80.7099 35.7543 79.9432 32.6198 79.9357 28.1664C79.9357 23.7631 80.7024 20.6538 82.2357 18.8383C83.7691 17.0228 86.4127 16.0856 90.1665 16.0267H90.4693C94.0476 16.0267 96.695 16.7495 98.4114 18.1951C99.3969 19.0326 100.106 19.8476 100.538 20.6399L100.679 20.5798L99.7279 18.9793C99.6834 18.8841 99.6621 18.7797 99.6658 18.6747L99.6733 8.00562ZM91.5714 37.6205C94.42 37.6205 96.4887 37.0332 97.7776 35.8584C98.3503 35.3493 98.8141 34.7296 99.1411 34.0367C99.4682 33.3438 99.6518 32.5919 99.6808 31.8262V24.5743C99.6516 23.803 99.4681 23.0452 99.1412 22.3459C98.8143 21.6466 98.3507 21.0198 97.7776 20.5027C96.495 19.3429 94.4262 18.7624 91.5714 18.7612C88.6551 18.7612 86.6597 19.3554 85.5852 20.544C84.5107 21.7326 83.9741 24.2784 83.9754 28.1815C83.9754 32.1384 84.512 34.7005 85.5852 35.8677C86.6584 37.035 88.6538 37.6193 91.5714 37.6205Z" fill="black"/>
<path d="M110.449 9.48389V13.3524H106.477V9.48389H110.449ZM106.477 16.2374H110.449V40.1802H106.477V16.2374Z" fill="black"/>
<path d="M124.91 40.1726C122.357 40.1726 120.625 39.7438 119.714 38.8862C118.802 38.0287 118.346 36.4721 118.346 34.2166V19.1261H113.299V16.2693H114.576C115.168 16.2776 115.756 16.1709 116.308 15.9552C116.808 15.7582 117.265 15.4664 117.654 15.0958C118.035 14.726 118.335 14.2809 118.534 13.7887C118.748 13.2647 118.855 12.7033 118.849 12.1375V8H122.819V12.1375C122.832 12.7117 122.732 13.283 122.525 13.8188C122.351 14.2612 122.089 14.664 121.756 15.0036C121.448 15.3147 121.079 15.5593 120.673 15.722C120.284 15.8804 119.875 15.9829 119.458 16.0267V16.2693H132.811V19.1261H122.298V33.2442C122.298 34.8265 122.608 35.8596 123.229 36.3436C123.849 36.8275 124.822 37.0708 126.146 37.0733H132.829V40.1726H124.91Z" fill="black"/>
<path d="M138.509 8.04517H155.505C158.612 8.04517 160.877 8.94351 162.302 10.7402C163.726 12.5368 164.438 15.0218 164.438 18.1951C164.438 21.2606 163.695 23.6572 162.209 25.3849C160.982 26.8168 159.152 27.6543 156.72 27.8975L156.923 28.3019L159.253 27.937L164.357 40.1727H157.431L152.77 29.6804L152.75 28.4448H144.894V40.1727H138.509V8.04517ZM153.763 23.5626C155.236 23.5626 156.32 23.12 157.015 22.2348C157.71 21.3496 158.057 20.0363 158.057 18.2948C158.057 16.5132 157.71 15.1598 157.015 14.2345C156.32 13.3092 155.236 12.8465 153.763 12.8465H144.871V23.5663L153.763 23.5626Z" fill="black"/>
<path d="M194.275 31.6043C194.018 34.0204 193.342 35.8503 192.249 37.094C191.171 38.3251 189.766 39.2246 188.196 39.6875C186.604 40.1727 184.187 40.4153 180.944 40.4153C175.585 40.4153 171.972 39.4636 170.108 37.5604C168.244 35.6572 167.303 32.5441 167.287 28.221C167.287 23.8729 168.227 20.7535 170.108 18.8628C171.989 16.9721 175.551 16.0267 180.794 16.0267C186.075 16.0267 189.633 16.9922 191.469 18.923C193.304 20.8538 194.223 23.8184 194.224 27.8167L194.184 29.4359H173.369C173.505 32.2594 174.038 34.0962 174.97 34.9463C176.064 35.9594 178.056 36.4659 180.944 36.4659C182.7 36.4659 183.949 36.3543 184.693 36.1311C185.493 35.8691 186.196 35.3716 186.709 34.7037C187.309 33.974 187.744 32.9409 188.014 31.6043H194.275ZM187.995 26.0733C187.954 23.7112 187.413 22.1013 186.374 21.2438C185.335 20.3862 183.485 19.9574 180.824 19.9574C178.043 19.9574 176.1 20.4363 174.994 21.3942C174.103 22.179 173.569 23.7388 173.394 26.0733H187.995Z" fill="black"/>
<path d="M218.357 36.02L217.952 35.832C217.405 36.6633 216.775 37.4371 216.072 38.1414C215.482 38.6775 214.808 39.1122 214.076 39.4278C213.175 39.814 212.226 40.0765 211.255 40.2083C210.061 40.378 208.856 40.4591 207.65 40.4509C206.661 40.4512 205.674 40.3884 204.694 40.2628C203.715 40.1426 202.752 39.926 201.816 39.6159C200.947 39.3303 200.13 38.906 199.396 38.3596C198.683 37.821 198.109 37.1193 197.724 36.3134C197.319 35.4847 197.116 34.3945 197.116 33.043C197.116 31.8406 197.319 30.8476 197.724 30.064C198.126 29.2864 198.685 28.6006 199.366 28.0498C200.104 27.4619 200.945 27.0156 201.846 26.7333C202.843 26.409 203.867 26.1779 204.906 26.0431C205.95 25.9037 207.003 25.8327 208.056 25.8306H216.924V24.5743C216.924 23.1951 216.66 22.1758 216.134 21.5163C215.598 20.8502 214.838 20.4032 213.995 20.26C213.099 20.0857 211.765 19.998 209.995 19.9967C208.73 19.973 207.465 20.0681 206.217 20.2807C205.356 20.4235 204.562 20.8349 203.949 21.4561C203.388 22.0504 203.101 22.982 203.087 24.2508H197.257C197.325 22.2247 197.795 20.6719 198.666 19.5924C199.473 18.5588 200.543 17.7611 201.763 17.2829C202.947 16.8268 204.177 16.5008 205.431 16.3106C207.032 16.0988 208.647 16.0039 210.262 16.0266C213.773 16.0266 216.288 16.2899 217.807 16.8165C219.32 17.3382 220.656 18.2715 221.667 19.5115C222.72 20.7816 223.246 22.6247 223.246 25.0407V40.1726H217.112V38.369C217.113 38.145 217.15 37.9227 217.223 37.7108C217.294 37.4923 217.407 37.2898 217.555 37.1146L218.357 36.02ZM208.953 36.5673C209.871 36.5676 210.788 36.5047 211.697 36.3793C212.537 36.2696 213.359 36.0515 214.142 35.7304C214.836 35.4537 215.473 35.0521 216.023 34.5456C216.482 34.1511 216.793 33.6118 216.905 33.0166L217.093 29.2891H208.726C208.058 29.2865 207.39 29.3375 206.73 29.4414C206.149 29.528 205.586 29.7057 205.06 29.968C204.58 30.2122 204.181 30.5922 203.915 31.0607C203.617 31.6318 203.473 32.2712 203.499 32.915C203.499 33.7801 203.655 34.4553 203.966 34.9405C204.262 35.4151 204.697 35.7868 205.213 36.005C205.775 36.2382 206.369 36.3883 206.975 36.4507C207.633 36.5263 208.296 36.5653 208.959 36.5673H208.953Z" fill="black"/>
<path d="M246.106 8.04517H252.407V40.1727H246.106V38.1472C246.099 38.0392 246.128 37.9318 246.189 37.8425L247.586 36.3248L247.398 36.2026C246.777 36.9656 246.055 37.6402 245.251 38.2074C243.266 39.6254 240.551 40.3344 237.107 40.3344H236.731C233.033 40.2805 230.337 39.2774 228.644 37.3253C226.952 35.3732 226.105 32.3177 226.104 28.1589C226.104 24.0139 226.95 20.9754 228.644 19.0433C230.338 17.1112 233.034 16.112 236.731 16.0455H237.198C240.615 16.0455 243.303 16.7546 245.26 18.1726C246.064 18.7398 246.787 19.4143 247.408 20.1774L247.63 20.0551L246.193 18.4566C246.132 18.3831 246.102 18.2885 246.11 18.1933L246.106 8.04517ZM239.018 36.101C241.312 36.101 243.068 35.6352 244.284 34.7037C245.405 33.8386 246.012 32.5848 246.106 30.9423V25.4884C246.012 23.8146 245.405 22.5451 244.284 21.68C243.069 20.7623 241.314 20.3034 239.018 20.3034C236.613 20.3034 234.921 20.7723 233.94 21.7101C232.96 22.648 232.471 24.8057 232.473 28.1834C232.473 31.6137 232.962 33.7909 233.94 34.715C234.918 35.639 236.611 36.101 239.018 36.101Z" fill="black"/>
<path d="M267.03 35.817H267.395L273.601 16.2581H280.206L271.88 40.1802C270.191 44.5571 268.591 46.9543 267.079 47.3719C265.567 47.7894 261.975 47.9987 256.303 48V42.9955C260.974 42.9955 263.574 42.8946 264.102 42.6927C264.629 42.4909 265.264 41.6534 266.005 40.1802H263.697L255.27 16.2581H261.852L267.323 32.7252C267.364 32.8651 267.394 33.0078 267.413 33.1521C267.434 33.2992 267.444 33.4475 267.444 33.5959L267.03 35.817Z" fill="black"/>
<path d="M285.882 9.61065H265L273.849 0H295V20.7749L285.882 30V9.61065Z" fill="#593BFF"/>
</svg>
