<svg xmlns="http://www.w3.org/2000/svg" width="207" height="54" fill="none"><path fill="#fff" d="M95.722 41.584V23.82c0-2.847 2.316-5.156 5.174-5.156h.708v22.919c0 .664-.54 1.202-1.207 1.202h-3.469a1.205 1.205 0 0 1-1.206-1.202Zm32.181-13.405v13.254c0 .747-.608 1.353-1.358 1.353h-3.12c-.75 0-1.358-.606-1.358-1.353V29.351c0-3.427-1.901-5.455-5.068-5.455-3.575 0-5.701 2.524-5.701 6.357v11.18c0 .747-.608 1.353-1.358 1.353h-3.166c-.75 0-1.358-.606-1.358-1.353v-17.44c0-2.943 2.393-5.328 5.346-5.328h.536v3.607c1.493-2.344 4.162-3.607 7.556-3.607 5.882 0 9.049 3.833 9.049 9.514Zm15.699-4.344c2.653 0 4.661 1.602 5.363 4.225H138c.925-2.914 3.418-4.225 5.602-4.225Zm-.045-5.696c-7.174 0-12.381 5.284-12.381 12.565 0 7.397 5.295 12.564 12.877 12.564 4.352 0 7.945-1.713 10.119-4.825l.298-.432-3.439-2.386c-.747-.519-1.762-.45-2.412.162-1.157 1.093-2.747 1.696-4.473 1.696-1.911 0-5.167-.58-6.212-4.316h15.614a1.927 1.927 0 0 0 1.928-1.761c.036-.411.054-.81.054-1.152 0-6.905-5.147-12.115-11.973-12.115ZM180.6 41.258c.235.339.259.762.066 1.125a1.079 1.079 0 0 1-.969.582h-4.46c-.362 0-.699-.176-.904-.474l-4.836-7.028a.718.718 0 0 0-.602-.318h-.003a.731.731 0 0 0-.606.315l-4.875 7.034a1.093 1.093 0 0 1-.904.471h-4.363c-.413 0-.774-.216-.97-.582a1.068 1.068 0 0 1 .066-1.125l7.023-10.215a.724.724 0 0 0 0-.825l-6.839-10.026a1.075 1.075 0 0 1-.063-1.126c.192-.363.557-.582.969-.582h4.412c.365 0 .705.18.906.48l4.638 6.816c.138.204.361.32.609.32a.727.727 0 0 0 .608-.32l4.637-6.816c.205-.3.546-.48.907-.48h6.438l-7.959 11.638a.728.728 0 0 0 0 .825l7.074 10.311Zm20.484-10.554c0-3.517-2.76-6.764-6.788-6.764-3.8 0-6.786 2.796-6.786 6.764 0 3.968 2.94 6.763 6.741 6.763 4.027 0 6.833-3.156 6.833-6.763ZM207 18.665V41.6a1.19 1.19 0 0 1-1.192 1.188h-3.226a1.19 1.19 0 0 1-1.193-1.188v-2.78c-1.9 2.706-4.931 3.923-7.691 3.923-6.697 0-11.493-5.32-11.493-11.903 0-6.808 4.887-12.174 11.674-12.174 2.669 0 5.746 1.172 7.556 4.013 0 0 .766-4.19 5.565-4.013ZM91.471 39.648c.491.634.579 1.474.223 2.194a2.072 2.072 0 0 1-1.879 1.17h-2.349c-.665 0-1.298-.32-1.689-.858l-7.845-10.707a2.065 2.065 0 0 1 .018-2.485l7.348-9.692a2.101 2.101 0 0 1 1.668-.829h6.55l-8.558 10.803a1.631 1.631 0 0 0-.01 2.017l6.523 8.387Zm-17.957 3.138h-4.567v-30.43c0-.725.59-1.312 1.316-1.312h3.25c.727 0 1.316.587 1.316 1.311v29.12c0 .724-.589 1.311-1.315 1.311Z"/><path fill="#FF5E40" d="M95.722 13.914c0-1.69 1.396-2.914 2.924-2.914 1.595 0 2.958 1.325 2.958 2.914 0 1.556-1.363 2.881-2.958 2.881-1.562 0-2.924-1.225-2.924-2.881Z"/><g filter="url(#a)"><rect width="54" height="54" fill="url(#b)" rx="10"/><g filter="url(#c)"><path fill="#fff" d="M16.66 21.347a2.291 2.291 0 0 1-3.192-.665 2.341 2.341 0 0 1 .66-3.223 2.29 2.29 0 0 1 3.191.665 2.34 2.34 0 0 1-.659 3.223Z"/><path fill="url(#d)" d="M47.524 31.574c-1.331 2.17-3.084 3.345-3.278 3.472 0 0-1.304.824-1.813.961v-3.792c.011-.01 1.365-.915 2.311-2.51 1.176-1.979 1.214-4.151.109-6.459-.058-.112-.846-1.555-2.326-2.643-1.92-1.41-4.163-1.605-6.676-.583-.17.075-4.073 1.85-6.636 6.528-.07.129-.144.258-.217.383 2.58 3.48 5.746 5.181 5.78 5.198v3.74c-.49-.17-1.532-.744-1.532-.744-.169-.088-3.355-1.779-6.246-5.306v.004c-3.16 4.932-7.38 6.741-7.574 6.82-1.585.648-3.02.906-4.308.906-2.483 0-4.402-.963-5.734-1.97-2.126-1.61-3.176-3.667-3.219-3.755l-.014-.028c-2.069-4.308-.965-7.72.326-9.821 1.33-2.168 3.084-3.345 3.278-3.472 0 0 1.303-.823 1.813-.959v3.79c-.012.01-1.366.916-2.312 2.51-.882 1.484-1.124 3.078-.724 4.756a7.383 7.383 0 0 0 1.63 3.132c.349.4.787.83 1.312 1.217 1.917 1.406 4.162 1.602 6.675.583.169-.076 4.073-1.85 6.636-6.53.07-.13.143-.259.215-.383-2.578-3.481-5.744-5.182-5.779-5.199v-3.74c.492.172 1.532.744 1.532.744.17.09 3.355 1.779 6.247 5.304 3.161-4.934 7.381-6.743 7.575-6.823 1.583-.647 3.02-.905 4.307-.905 2.482 0 4.403.963 5.734 1.97 2.124 1.611 3.176 3.67 3.219 3.756l.013.027c2.07 4.309.967 7.72-.324 9.821Z"/><path fill="#fff" d="M37.36 32.584a2.362 2.362 0 0 1 3.253.665 2.314 2.314 0 0 1-.671 3.223 2.362 2.362 0 0 1-3.254-.665 2.314 2.314 0 0 1 .672-3.223Z"/></g></g><defs><linearGradient id="b" x1="27" x2="27" y1="0" y2="54" gradientUnits="userSpaceOnUse"><stop stop-color="#FF5E40"/><stop offset=".889" stop-color="#FF5E40"/><stop offset="1" stop-color="#FF5E41"/></linearGradient><linearGradient id="d" x1="22.809" x2="22.809" y1="17.044" y2="35.833" gradientUnits="userSpaceOnUse"><stop stop-color="#fff"/><stop offset="1" stop-color="#fff"/></linearGradient><filter id="a" width="54" height="60" x="0" y="-3" color-interpolation-filters="sRGB" filterUnits="userSpaceOnUse"><feFlood flood-opacity="0" result="BackgroundImageFix"/><feBlend in="SourceGraphic" in2="BackgroundImageFix" result="shape"/><feColorMatrix in="SourceAlpha" result="hardAlpha" values="0 0 0 0 0 0 0 0 0 0 0 0 0 0 0 0 0 0 127 0"/><feOffset dy="-3"/><feGaussianBlur stdDeviation="2"/><feComposite in2="hardAlpha" k2="-1" k3="1" operator="arithmetic"/><feColorMatrix values="0 0 0 0 0.513997 0 0 0 0 0.123359 0 0 0 0 0 0 0 0 0.2 0"/><feBlend in2="shape" result="effect1_innerShadow_126_1010"/><feColorMatrix in="SourceAlpha" result="hardAlpha" values="0 0 0 0 0 0 0 0 0 0 0 0 0 0 0 0 0 0 127 0"/><feOffset dy="3"/><feGaussianBlur stdDeviation="2"/><feComposite in2="hardAlpha" k2="-1" k3="1" operator="arithmetic"/><feColorMatrix values="0 0 0 0 1 0 0 0 0 1 0 0 0 0 1 0 0 0 0.2 0"/><feBlend in2="effect1_innerShadow_126_1010" result="effect2_innerShadow_126_1010"/></filter><filter id="c" width="48" height="25.549" x="3" y="15" color-interpolation-filters="sRGB" filterUnits="userSpaceOnUse"><feFlood flood-opacity="0" result="BackgroundImageFix"/><feColorMatrix in="SourceAlpha" result="hardAlpha" values="0 0 0 0 0 0 0 0 0 0 0 0 0 0 0 0 0 0 127 0"/><feOffset dy="1"/><feGaussianBlur stdDeviation="1"/><feComposite in2="hardAlpha" operator="out"/><feColorMatrix values="0 0 0 0 0.513997 0 0 0 0 0.123359 0 0 0 0 0 0 0 0 0.08 0"/><feBlend in2="BackgroundImageFix" result="effect1_dropShadow_126_1010"/><feBlend in="SourceGraphic" in2="effect1_dropShadow_126_1010" result="shape"/></filter></defs></svg>