<svg xmlns="http://www.w3.org/2000/svg" width="139" height="33" fill="none"><path fill="#000" d="M27.722 30.843V13.081c0-2.848 2.316-5.156 5.174-5.156h.708v22.918c0 .665-.54 1.203-1.206 1.203h-3.47a1.205 1.205 0 0 1-1.206-1.203Zm32.181-13.405v13.255c0 .747-.608 1.353-1.358 1.353h-3.12c-.75 0-1.358-.606-1.358-1.353V18.61c0-3.426-1.9-5.455-5.068-5.455-3.575 0-5.701 2.525-5.701 6.357v11.18c0 .748-.608 1.354-1.358 1.354h-3.166c-.75 0-1.358-.606-1.358-1.353V13.252c0-2.942 2.393-5.327 5.346-5.327h.536v3.607c1.493-2.345 4.163-3.607 7.556-3.607 5.882 0 9.05 3.832 9.05 9.513Zm15.699-4.344c2.653 0 4.661 1.603 5.363 4.225H70c.925-2.914 3.418-4.225 5.602-4.225ZM75.556 7.4c-7.174 0-12.38 5.284-12.38 12.564 0 7.397 5.294 12.565 12.876 12.565 4.352 0 7.945-1.714 10.119-4.826l.298-.432-3.44-2.385a1.927 1.927 0 0 0-2.411.162c-1.157 1.092-2.747 1.695-4.473 1.695-1.911 0-5.167-.579-6.212-4.315h15.614a1.926 1.926 0 0 0 1.927-1.762c.037-.41.055-.81.055-1.152 0-6.905-5.147-12.114-11.973-12.114ZM112.6 30.518c.235.339.259.762.066 1.125a1.079 1.079 0 0 1-.969.582h-4.46c-.362 0-.699-.177-.904-.474l-4.836-7.028a.718.718 0 0 0-.602-.318h-.003a.73.73 0 0 0-.606.315l-4.875 7.034a1.094 1.094 0 0 1-.904.47h-4.363c-.413 0-.774-.215-.97-.581a1.069 1.069 0 0 1 .066-1.125l7.023-10.216a.725.725 0 0 0 0-.825l-6.84-10.026a1.075 1.075 0 0 1-.062-1.125c.192-.363.557-.582.97-.582h4.411c.365 0 .705.18.906.48l4.638 6.815c.138.204.361.32.609.32a.727.727 0 0 0 .608-.32l4.637-6.815c.205-.3.546-.48.907-.48h6.438l-7.959 11.637a.728.728 0 0 0 0 .825l7.074 10.312Zm20.484-10.554c0-3.517-2.76-6.764-6.788-6.764-3.8 0-6.786 2.796-6.786 6.764 0 3.967 2.94 6.763 6.741 6.763 4.027 0 6.833-3.157 6.833-6.763ZM139 7.924v22.934a1.19 1.19 0 0 1-1.192 1.188h-3.226a1.19 1.19 0 0 1-1.193-1.188V28.08c-1.9 2.706-4.931 3.923-7.691 3.923-6.697 0-11.493-5.32-11.493-11.903 0-6.809 4.887-12.174 11.674-12.174 2.669 0 5.746 1.172 7.556 4.013 0 0 .766-4.19 5.565-4.013ZM23.471 28.908c.491.633.579 1.474.223 2.194a2.072 2.072 0 0 1-1.879 1.17h-2.349c-.665 0-1.298-.32-1.689-.858L9.932 20.706a2.065 2.065 0 0 1 .018-2.484l7.348-9.693a2.101 2.101 0 0 1 1.669-.828h6.55l-8.56 10.803a1.631 1.631 0 0 0-.008 2.016l6.522 8.388ZM5.514 32.046H.947V1.615c0-.724.59-1.311 1.316-1.311h3.25C6.24.304 6.83.89 6.83 1.615v29.12c0 .724-.59 1.31-1.316 1.31Z"/><path fill="#FF5E40" d="M27.722 3.173c0-1.689 1.395-2.914 2.924-2.914 1.595 0 2.958 1.325 2.958 2.914 0 1.557-1.363 2.882-2.958 2.882-1.562 0-2.924-1.226-2.924-2.882Z"/></svg>